<svg version="1.1" id="Layer_1" xmlns="http://www.w3.org/2000/svg" xmlns:xlink="http://www.w3.org/1999/xlink" x="0px" y="0px"
	 width="100%" viewBox="0 0 1024 1024" enable-background="new 0 0 1024 1024" xml:space="preserve">
<path fill="#000000" opacity="1.000000" stroke="none" 
	d="
M360.943054,428.614563 
	C399.884552,419.694672 439.972870,440.654724 446.423431,485.227020 
	C449.405060,505.829620 446.177917,524.959717 433.580902,541.999268 
	C432.692017,543.201599 431.684418,544.316833 430.720612,545.462952 
	C429.775909,546.586365 428.378876,547.363220 427.895905,549.549805 
	C432.284119,553.149231 436.822052,556.986389 441.491241,560.656433 
	C444.099243,562.706421 444.742035,564.451233 442.056519,567.075134 
	C438.727203,570.328003 435.643311,573.853943 432.666534,577.438965 
	C430.227905,580.375854 428.115204,580.678711 425.342133,577.819214 
	C421.169006,573.515869 416.664459,569.534546 412.475128,565.246155 
	C410.185760,562.902588 408.210266,562.629272 405.027008,563.903259 
	C384.275360,572.208435 363.670868,572.092712 344.059540,560.721313 
	C326.929230,550.788513 317.064819,535.253296 313.322784,516.045715 
	C308.656799,492.095367 312.281464,469.688690 327.568481,449.955200 
	C336.038940,439.020966 347.270905,432.251648 360.943054,428.614563 
M383.759369,544.575989 
	C385.457947,544.111877 387.156555,543.647827 389.913422,542.894653 
	C386.143463,539.342407 383.048737,536.373230 379.892700,533.470642 
	C377.671021,531.427429 377.221161,529.542053 379.598602,527.166870 
	C383.009460,523.759216 386.297577,520.213318 389.434845,516.552307 
	C391.856354,513.726440 393.737213,513.723450 396.297546,516.509155 
	C400.086365,520.631348 404.251770,524.407471 408.181915,528.257507 
	C409.842957,527.712524 410.395569,526.457336 410.898560,525.245911 
	C418.768738,506.290558 419.364655,487.280426 409.340576,469.074493 
	C401.899048,455.559021 389.357941,450.897247 374.239227,452.257538 
	C361.282562,453.423248 352.848816,460.630066 347.497589,471.883972 
	C342.200012,483.025055 341.476044,494.998840 342.625305,507.004791 
	C343.485687,515.992676 346.247650,524.515808 351.670990,532.021912 
	C359.475006,542.823120 370.407745,545.594971 383.759369,544.575989 
z"/>
<path fill="#000000" opacity="1.000000" stroke="none" 
	d="
M827.155273,561.286255 
	C809.463074,573.762695 774.640320,572.799133 758.935486,554.062317 
	C751.753174,545.493286 747.546692,535.968445 746.548340,524.763611 
	C745.771912,516.049255 746.000183,507.475555 748.333313,499.108032 
	C754.956299,475.355530 773.570435,462.834259 798.784912,463.328522 
	C827.006592,463.881744 843.999573,486.052795 845.501343,507.581207 
	C845.720215,510.718689 846.342773,513.829224 846.246643,517.008423 
	C846.057739,523.256958 845.523682,523.897339 839.321716,523.922546 
	C820.340759,523.999817 801.359436,524.030457 782.378296,524.043396 
	C773.507263,524.049438 772.785278,525.071045 776.118103,533.476990 
	C779.336975,541.595703 785.232239,546.675049 793.950073,547.505310 
	C803.295776,548.395264 811.550476,545.875061 816.596802,537.161682 
	C818.154358,534.472290 820.021729,533.279846 823.021790,533.655762 
	C828.117371,534.294495 833.241760,534.750977 838.306335,535.576782 
	C843.777100,536.468872 844.714172,538.292053 842.389893,543.372620 
	C839.065918,550.638245 834.059204,556.555420 827.155273,561.286255 
M786.528381,505.695221 
	C795.491394,505.696625 804.454346,505.696960 813.417358,505.700073 
	C815.956909,505.700928 818.085938,505.667084 817.224304,501.885559 
	C814.824768,491.354858 805.128662,483.818176 794.699402,484.681030 
	C782.836731,485.662506 775.498108,493.090027 774.882996,504.959961 
	C778.318298,506.438019 781.995117,505.364655 786.528381,505.695221 
z"/>
<path fill="#000000" opacity="1.000000" stroke="none" 
	d="
M579.887817,479.914276 
	C595.417664,463.135193 614.670410,460.258636 635.081055,465.647614 
	C655.250916,470.972992 666.013245,485.577667 669.523193,505.999603 
	C673.668579,530.119446 665.114868,551.834045 646.413330,562.692688 
	C626.610352,574.190796 593.643677,572.277344 577.221497,550.371887 
	C570.003418,540.743774 567.395752,529.693481 567.219177,518.066772 
	C567.007385,504.125244 569.807434,490.936584 579.887817,479.914276 
M601.854553,539.606934 
	C613.178162,551.314026 631.727539,549.315186 638.384827,535.203674 
	C644.356934,522.544434 644.402344,509.309906 638.296875,496.665161 
	C631.361389,482.301331 610.706604,480.821716 601.196838,493.634827 
	C593.072388,504.581421 593.170898,526.705933 601.854553,539.606934 
z"/>
<path fill="#000000" opacity="1.000000" stroke="none" 
	d="
M538.038635,465.869812 
	C540.860596,465.867981 543.193054,465.870178 545.525452,465.863251 
	C553.408142,465.839783 553.967651,466.292358 553.981384,474.382965 
	C554.029358,502.704987 554.016602,531.027161 553.978821,559.349304 
	C553.970093,565.911438 553.458252,566.328918 546.762939,566.352173 
	C542.597961,566.366638 538.425354,566.201599 534.270020,566.402954 
	C530.159607,566.602112 528.544373,564.821289 528.599792,560.802979 
	C528.630615,558.572327 529.263428,556.190491 527.817871,553.693909 
	C524.835266,556.518188 522.164612,559.399719 519.142334,561.846741 
	C507.126953,571.575195 487.105560,572.363159 475.242371,563.589233 
	C467.370819,557.767578 463.710815,549.426697 462.741028,540.054382 
	C460.369995,517.140259 462.179260,494.132874 461.690887,471.171783 
	C461.614990,467.602844 463.582886,465.951172 466.919434,465.893463 
	C472.915436,465.789734 478.914368,465.870361 484.911530,465.814453 
	C487.989532,465.785767 489.601288,467.345184 489.775848,470.289856 
	C489.972687,473.610504 490.007019,476.943817 490.018280,480.271942 
	C490.070770,495.764832 489.852692,511.263123 490.200104,526.748962 
	C490.463867,538.507812 496.006134,545.025146 505.244904,545.620544 
	C514.169006,546.195679 522.543335,538.854126 524.610657,528.697083 
	C525.376465,524.934631 525.711426,521.163635 525.687561,517.311646 
	C525.598755,502.984497 525.647461,488.656433 525.652893,474.328705 
	C525.655945,466.203278 525.960754,465.902771 534.049988,465.868103 
	C535.216370,465.863129 536.382690,465.868835 538.038635,465.869812 
z"/>
<path fill="#000000" opacity="1.000000" stroke="none" 
	d="
M189.645508,490.917511 
	C197.860733,472.913910 214.036148,463.707550 233.361313,465.717621 
	C250.899597,467.541840 264.555206,480.014893 268.847717,498.130890 
	C274.957184,523.915100 255.646164,547.840027 229.128906,548.522766 
	C207.611877,549.076782 190.033127,533.346802 187.200760,515.265076 
	C185.924759,507.119080 186.175507,499.031647 189.645508,490.917511 
z"/>
<path fill="#000000" opacity="1.000000" stroke="none" 
	d="
M718.965820,516.999817 
	C718.995422,522.658813 718.822388,527.828979 719.101685,532.974548 
	C719.573730,541.672485 723.245422,545.175659 731.872986,545.643311 
	C740.158203,546.092407 740.079773,546.093445 740.193115,554.534424 
	C740.394043,569.498840 739.577698,567.333801 727.518127,567.320129 
	C722.720642,567.314697 717.933777,567.658691 713.120544,566.552612 
	C697.927917,563.061462 691.075684,554.886536 690.959106,539.207275 
	C690.843933,523.727173 690.759521,508.242645 691.025879,492.766357 
	C691.110474,487.847748 689.813171,485.497772 684.612488,486.257324 
	C683.148071,486.471191 681.621399,486.234009 680.123779,486.250427 
	C676.956116,486.285126 675.630920,484.628601 675.664734,481.581787 
	C675.703552,478.086700 675.786377,474.585571 675.633850,471.096527 
	C675.460327,467.128571 677.571655,465.916504 681.131714,465.710388 
	C690.976807,465.140381 690.937073,465.076569 690.945557,455.226837 
	C690.949280,450.904907 691.060669,446.579651 691.261047,442.262329 
	C691.407166,439.113403 692.960815,437.515228 696.375305,437.620392 
	C702.029602,437.794525 707.698547,437.816040 713.351135,437.616272 
	C717.563416,437.467407 719.024414,439.617096 719.037720,443.370575 
	C719.058289,449.196472 719.185364,455.027008 718.997009,460.846832 
	C718.877747,464.530701 720.289612,465.960266 723.968567,465.742126 
	C727.617371,465.525818 731.291626,465.784515 734.951599,465.699707 
	C738.317566,465.621674 739.762146,467.432739 740.109314,470.504669 
	C740.146667,470.835083 740.177979,471.168030 740.181824,471.500153 
	C740.381775,488.731110 740.971802,486.218842 726.617310,486.319641 
	C719.064880,486.372650 719.059021,486.331360 719.030273,494.027405 
	C719.002319,501.518188 718.987244,509.009064 718.965820,516.999817 
z"/>
</svg>